<svg version="1.1" id="Layer_1" xmlns="http://www.w3.org/2000/svg" xmlns:xlink="http://www.w3.org/1999/xlink" x="0px" y="0px" width="180" height="75" viewBox="0 0 330 138">
<defs id="SvgjsDefs11377">
</defs>
<g id="SvgjsG11378" featurekey="symbolGroupContainer" transform="matrix(1,0,0,1,0,0)" fill="#39e991">
<rect xmlns="http://www.w3.org/2000/svg" width="110" height="138" rx="10" ry="10">
</rect></g><g id="SvgjsG11379" featurekey="mugSzh-0" transform="matrix(1.0695323558646779,0,0,1.0695323558646779,1.4752756088351973,15.291362730404533)" fill="#262833">
<title xmlns="http://www.w3.org/2000/svg">Artboard 23</title>
<path xmlns="http://www.w3.org/2000/svg" d="M27.26,43.08a3,3,0,0,1,1.92,2.78V78.75h6V61.9a3,3,0,1,1,5.95,0V78.75h6l.09-20.83a3,3,0,0,1,3-3h0a3,3,0,0,1,3,3L53,78.75h5.93V61.9a3,3,0,1,1,6,0V78.75h5.95V45.86a3,3,0,0,1,1.92-2.78,15.37,15.37,0,0,0-5.4-29.76c-.42,0-.87,0-1.31.06a3,3,0,0,1-2.8-1.45,15.39,15.39,0,0,0-26.46,0A3,3,0,0,1,34,13.38c-.45,0-.89-.06-1.33-.06a15.37,15.37,0,0,0-5.38,29.76ZM75.78,84.7H24.22a3,3,0,0,0-3,3v4.95a3,3,0,0,0,3,3H75.78a3,3,0,0,0,3-3V87.68A3,3,0,0,0,75.78,84.7Z"></path>
</g><g id="SvgjsG11380" featurekey="PPkF4s-0" transform="matrix(3.2959788891586532,0,0,3.2959788891586532,128.41793242780585,-0.44231590596734094)" fill="#101116"><path d="M11.3 18.56 l0.72 0 l0 1.44 l-2.88 0 l0 -1.44 l0.72 0 l0 -2.16 c0 -0.8 -0.64 -1.44 -1.44 -1.44 c-0.76 0 -1.4 0.62 -1.44 1.38 l0 0.06 l0 2.16 l0.72 0 l0 1.44 l-2.88 0 l0 -1.44 l0.72 0 l0 -1.44 l0 -0.72 l0 -0.04 c-0.02 -0.78 -0.66 -1.4 -1.44 -1.4 s-1.4 0.62 -1.44 1.38 l0 0.06 l0 2.16 l0.72 0 l0 1.44 l-2.9 0 l0 -1.44 l0.74 0 l0 -3.6 l-0.74 0 l0 -1.44 l2.18 0 l0 0.38 c0.42 -0.24 0.92 -0.38 1.44 -0.38 c0.86 0 1.64 0.38 2.16 0.98 c0.54 -0.6 1.3 -0.98 2.16 -0.98 c1.6 0 2.88 1.3 2.88 2.88 l0 2.16 z M19.14 14.96 l-0.96 0 l-2.76 6.48 l0.46 0 l0 1.44 l-2.9 0 l0 -1.44 l0.86 0 l0.92 -2.12 l-1.86 -4.36 l-0.96 0 l0 -1.44 l2.88 0 l0 1.44 l-0.36 0 l1.08 2.52 l1.06 -2.52 l-0.34 0 l0 -1.44 l2.88 0 l0 1.44 z M23.740000000000002 14.96 c-0.96 0 -1.76 0.76 -1.8 1.72 l0 1.88 l0.72 0 l0 1.44 l-2.88 0 l0 -1.44 l0.72 0 l0 -1.08 l0 -0.72 l0 -1.8 l-0.72 0 l0 -1.44 l2.16 0 l0 0.54 c0.52 -0.34 1.14 -0.54 1.8 -0.54 l0 1.44 z M29.9 17.48 l-0.86 0 l-3.32 0 c0.28 0.64 0.92 1.08 1.66 1.08 c0.58 0 1.12 -0.28 1.44 -0.72 l1.62 0 c-0.46 1.26 -1.66 2.16 -3.06 2.16 c-1.78 0 -3.24 -1.46 -3.24 -3.24 s1.46 -3.24 3.24 -3.24 s3.24 1.46 3.24 3.24 c0 0.24 -0.02 0.48 -0.08 0.72 l-0.64 0 z M25.72 16.04 l3.32 0 c-0.28 -0.64 -0.92 -1.08 -1.66 -1.08 s-1.38 0.44 -1.66 1.08 z M35.92 17.84 l1.6 0 l0.02 0 c-0.46 1.3 -1.68 2.16 -3.04 2.16 c-1.8 0 -3.24 -1.44 -3.24 -3.22 s1.44 -3.24 3.24 -3.24 c0.58 0 1.16 0.16 1.64 0.46 l0 -0.48 l1.44 0 l0 2.56 l-1.44 0 c-0.28 -0.66 -0.92 -1.1 -1.64 -1.1 c-1 0 -1.8 0.8 -1.8 1.8 c0 0.98 0.8 1.78 1.8 1.78 c0.56 0 1.1 -0.28 1.42 -0.72 z M40.44 18.56 l0.72 0 l0 1.44 l-2.88 0 l0 -1.44 l0.72 0 l0 -3.6 l-0.72 0 l0 -1.44 l2.16 0 l0 5.04 z M40.44 11.36 l0 1.44 l-1.44 0 l0 -1.44 l1.44 0 z M45.9 13.52 c1.78 0 3.24 1.46 3.24 3.24 c0 1.8 -1.46 3.24 -3.24 3.24 c-0.66 0 -1.28 -0.2 -1.8 -0.54 l0 1.98 l0.72 0 l0 1.44 l-2.88 0 l0 -1.44 l0.72 0 l0 -6.48 l-0.72 0 l0 -1.44 l2.16 0 l0 0.56 c0.52 -0.36 1.14 -0.56 1.8 -0.56 z M45.9 18.56 c1 0 1.8 -0.8 1.8 -1.8 c0 -0.98 -0.8 -1.8 -1.8 -1.8 c-0.96 0 -1.76 0.78 -1.8 1.72 l0 0.16 c0.04 0.96 0.84 1.72 1.8 1.72 z M55.379999999999995 17.48 l-0.86 0 l-3.32 0 c0.28 0.64 0.92 1.08 1.66 1.08 c0.58 0 1.12 -0.28 1.44 -0.72 l1.62 0 c-0.46 1.26 -1.66 2.16 -3.06 2.16 c-1.78 0 -3.24 -1.46 -3.24 -3.24 s1.46 -3.24 3.24 -3.24 s3.24 1.46 3.24 3.24 c0 0.24 -0.02 0.48 -0.08 0.72 l-0.64 0 z M51.199999999999996 16.04 l3.32 0 c-0.28 -0.64 -0.92 -1.08 -1.66 -1.08 s-1.38 0.44 -1.66 1.08 z M59.71999999999999 13.52 l1.44 0 l0 2.16 l-1.44 0 l0 -0.18 c0 -0.3 -0.34 -0.54 -0.72 -0.54 c-0.4 0 -0.72 0.24 -0.72 0.54 s0.32 0.54 0.72 0.54 c0.56 0 1.08 0.2 1.5 0.54 c0.42 0.38 0.66 0.9 0.66 1.44 s-0.24 1.06 -0.66 1.44 c-0.42 0.34 -0.94 0.54 -1.5 0.54 c-0.24 0 -0.5 -0.04 -0.72 -0.12 l0 0.12 l-1.44 0 l0 -1.98 l0 0 l0 0 l0 -0.18 l1.44 0 l0 0.18 c0 0.3 0.32 0.54 0.72 0.54 c0.38 0 0.72 -0.24 0.72 -0.54 s-0.34 -0.54 -0.72 -0.54 c-0.56 0 -1.1 -0.2 -1.5 -0.54 c-0.42 -0.38 -0.66 -0.9 -0.66 -1.44 s0.24 -1.06 0.66 -1.44 c0.4 -0.34 0.94 -0.54 1.5 -0.54 c0.24 0 0.5 0.04 0.72 0.12 l0 -0.12 z"></path></g><g id="SvgjsG11381" featurekey="uwAHB0-0" transform="matrix(1.0930156100711508,0,0,1.0930156100711508,127.87954965391911,79.01027443596247)" fill="#39e991"><path d="M6.38 18.8 q1.7 0 2.6 -0.73 t0.9 -1.99 q0 -1.36 -0.93 -2.14 t-2.43 -0.78 l-3.26 0 l0 5.64 l3.12 0 z M6.08 11.96 q1.44 0 2.31 -0.62 t0.87 -1.76 q0 -2.48 -3 -2.54 l-3 0 l0 4.92 l2.82 0 z M6.12 5.84 q2.22 0 3.33 0.9 t1.13 2.84 q0 1.12 -0.66 1.91 t-1.88 1.03 l0 0.04 q1.38 0.08 2.26 1.04 t0.9 2.44 q0 1.88 -1.25 2.91 t-3.45 1.05 l-4.56 0 l0 -14.16 l4.18 0 z M24.284 5.84 l4.28 6.72 l4.38 -6.72 l1.48 0 l-5.2 8.06 l0 6.1 l-1.32 0 l0 -6.1 l-5.2 -8.06 l1.58 0 z M63.592 5.84 l8.62 12.4 l0.04 0 l0 -12.4 l1.32 0 l0 14.16 l-1.7 0 l-8.62 -12.4 l-0.04 0 l0 12.4 l-1.32 0 l0 -14.16 l1.7 0 z M88.076 12.92 q0 2.7 1.66 4.45 t4.34 1.79 q2.7 0 4.34 -1.77 t1.66 -4.47 q0 -2.74 -1.64 -4.47 t-4.38 -1.77 q-2.68 0 -4.32 1.76 t-1.66 4.48 z M94.076 5.48 q2.16 0 3.82 0.95 t2.57 2.66 t0.93 3.83 q0 3.26 -2.06 5.33 t-5.26 2.11 q-3.22 0 -5.24 -2.09 t-2.08 -5.35 q0.02 -3.26 2.04 -5.32 t5.28 -2.12 z M118.79999999999998 12.08 q1.54 0 2.38 -0.69 t0.84 -1.83 t-0.82 -1.82 t-2.44 -0.7 l-2.86 0 l0 5.04 l2.9 0 z M118.39999999999999 5.84 q4.9 0 4.94 3.72 q0 3.14 -3.62 3.64 l4.12 6.8 l-1.5 0 l-3.98 -6.72 l-2.46 0 l0 6.72 l-1.32 0 l0 -14.16 l3.82 0 z M138.32399999999998 15.04 l6.5 0 l-3.2 -7.76 z M142.36399999999998 5.84 l5.96 14.16 l-1.48 0 l-1.54 -3.76 l-7.5 0 l-1.6 3.76 l-1.38 0 l6.18 -14.16 l1.36 0 z">
</path>
</g>
</svg>
